<?xml version="1.0" standalone="no"?><!DOCTYPE svg PUBLIC "-//W3C//DTD SVG 1.1//EN" "http://www.w3.org/Graphics/SVG/1.1/DTD/svg11.dtd"><svg t="1611886504770" class="icon" viewBox="0 0 1024 1024" version="1.1" xmlns="http://www.w3.org/2000/svg" p-id="4283" xmlns:xlink="http://www.w3.org/1999/xlink" width="200" height="200"><defs><style type="text/css"></style></defs><path d="M1.28 481.52064h61.776213c16.556373 0 29.740373-1.406293 39.896747-4.491947 10.018133-2.896213 20.03456-8.53504 29.827413-16.756053l17.95072-17.937067c7.44448-7.425707 15.337813-16.027307 23.514454-25.777493 8.364373-9.69728 16.677547-19.705173 25.408853-29.661867a2483.585707 2483.585707 0 0 0 24.034987-28.65664c15.112533-18.699947 28.52352-25.949867 40.523093-21.787306 12.00128 4.058453 21.080747 12.87168 26.958507 26.29632l49.47968 135.616853c25.480533-71.017813 47.967573-135.302827 67.324586-192.82432 8.362667-24.562347 16.55808-48.744107 24.920747-72.369493 8.17664-23.417173 15.67232-45.100373 22.401707-64.979627a5893.773653 5893.773653 0 0 1 16.853333-49.297067c4.416853-13.00992 7.043413-21.440853 7.93088-25.11872 3.720533-12.765867 9.285973-23.07072 16.800427-30.94528 7.44448-7.806293 15.721813-11.692373 24.697173-11.692373 9.78944 0 19.894613 2.77504 30.365013 8.36096 10.523307 5.602987 17.216853 16.9984 20.312747 34.274987 0.69632 4.38784 2.228907 16.443733 4.5056 35.80416 2.14016 19.428693 5.164373 43.67872 8.937813 72.820053 3.70688 29.192533 7.635627 61.47584 11.810134 96.948907 4.102827 35.577173 8.420693 71.58784 12.869973 108.19072 9.739947 86.039893 21.06368 182.10304 33.774933 288.124586 16.488107-53.79072 31.409493-102.724267 44.924587-146.819413 5.23264-18.768213 10.606933-37.225813 16.295253-55.545173 5.599573-18.245973 10.81856-35.073707 15.844694-50.44224 4.800853-15.3344 8.697173-28.189013 11.670186-38.647467 3.06176-10.443093 5.236053-17.15712 6.784-20.20864 3.6864-12.002987 8.277333-20.937387 13.47584-26.835627 5.20192-6.070613 12.368213-10.130773 21.3248-12.315306 17.286827-4.47488 30.189227-2.082133 38.79936 7.268693 8.574293 9.29792 12.888747 18.82112 12.888747 28.5696 0 8.152747-0.730453 15.29856-2.24256 21.249707-0.662187 3.034453-1.08032 5.602987-1.08032 7.83872l40.454827 109.89056c0.62464-0.692907 1.841493-2.220373 3.32288-4.47488 2.276693-3.816107 6.068907-11.589973 11.28448-23.52128 6.017707-12.750507 15.931733-21.128533 29.74208-25.275734 13.85984-4.007253 27.149653-5.741227 39.96672-4.978346 8.174933 0.694613 16.453973 1.128107 24.644266 1.128106H1024v85.154134c-4.435627 0.831147-8.93952 1.145173-13.462187 1.145173H981.213867c-10.402133-0.764587-20.10624 2.030933-29.185707 8.308053-8.922453 6.47168-15.286613 12.6464-19.07712 18.612907-3.012267 5.896533-8.195413 17.52064-15.742293 34.691413-7.425707 17.20832-14.29504 34.763093-20.174507 52.70016-3.060053 9.053867-7.876267 15.02208-14.661973 17.969494-6.746453 2.94912-13.54752 4.1984-20.69504 3.954346a44.173653 44.173653 0 0 1-20.348587-6.224213c-6.280533-3.766613-10.661547-8.20736-12.869973-13.477547-2.297173-5.205333-5.98528-14.363307-11.322027-27.374933-5.218987-13.185707-10.385067-26.385067-15.67232-39.82848a1267.712 1267.712 0 0 1-20.329813-50.476373 19626.1376 19626.1376 0 0 0-52.80256 171.557546c-6.659413 22.41024-13.339307 44.491093-20.159147 66.10432-6.729387 21.666133-12.868267 41.61536-18.59072 59.967147-5.582507 18.249387-10.192213 33.824427-14.020267 46.557867-3.822933 12.62592-5.9136 21.230933-6.678186 25.637546-3.790507 18.039467-10.92096 32.2304-21.461334 42.653014-10.432853 10.461867-23.14752 15.371947-38.242986 14.62272-15.68768-1.527467-26.907307-8.256853-33.549654-20.227414-6.867627-11.931307-10.871467-25.705813-12.453546-41.45664 0-3.744427-0.940373-15.368533-2.746027-34.727253-1.96608-19.4304-4.399787-44.059307-7.376213-73.966933-2.93888-29.871787-6.173013-63.10912-9.530027-99.775147-3.355307-36.584107-6.992213-74.036907-10.697387-112.162133-8.241493-88.886613-17.962667-188.279467-29.19936-298.11712a55634.432 55634.432 0 0 0-56.193706 164.737706 2334.21824 2334.21824 0 0 1-20.765014 61.68576c-7.113387 20.1728-13.513387 38.524587-19.11296 54.970027-5.548373 16.49664-10.262187 30.286507-14.037333 41.458347l-6.74816 20.18816a108.01152 108.01152 0 0 1-15.163733 26.89024c-6.4 8.22272-16.29696 11.984213-29.82912 11.272533-13.494613 0-23.581013-4.819627-30.347947-14.083413-6.644053-9.29792-12.054187-19.98336-15.757653-31.955627-2.210133-5.9648-6.26176-17.55136-12.366507-34.75968-5.981867-17.174187-12.279467-34.727253-19.0976-52.662613-8.209067-20.92032-16.853333-44.096853-25.792853-69.52448-5.338453 6.729387-10.919253 13.54752-16.991574 20.225706a1489.821013 1489.821013 0 0 0-16.677546 19.566934c-6.070613 7.130453-12.018347 14.052693-18.070187 20.816213-12.05248 14.18752-23.200427 23.831893-33.636693 29.124267-10.504533 5.2224-22.95808 7.130453-37.149014 5.602986-7.529813-0.76288-17.390933-1.00864-29.846186-0.52224-12.260693 0.244053-24.86784 0.52224-37.599574 0.52224-14.29504 0.761173-29.984427 1.03936-47.167146 1.03936v-87.437653H1.28z m0 0" p-id="4284" fill="#65e460"></path></svg>