<?xml version="1.0" standalone="no"?><!DOCTYPE svg PUBLIC "-//W3C//DTD SVG 1.1//EN" "http://www.w3.org/Graphics/SVG/1.1/DTD/svg11.dtd"><svg t="1611886573362" class="icon" viewBox="0 0 1024 1024" version="1.1" xmlns="http://www.w3.org/2000/svg" p-id="5512" xmlns:xlink="http://www.w3.org/1999/xlink" width="200" height="200"><defs><style type="text/css"></style></defs><path d="M928.645388 390.52895c-17.005934-42.514836-55.269286-29.760385-85.029671-25.508901-34.011868 4.251484-55.269286 29.760385-80.778187 8.502967-21.257418-17.005934-34.011868-46.766319-42.514836-76.526704-12.754451-34.011868-42.514836-59.52077-63.772253-97.784122 80.778188 29.760385 127.544507 4.251484 148.801924-34.011868 25.508901-42.514836 21.257418-102.035605-17.005934-136.047474-38.263352-34.011868-93.532638-38.263352-131.79599-12.754451-51.017803 34.011868-59.52077 76.526704-25.508901 165.807859-55.269286-17.005934-102.035605-46.766319-153.053408-63.772253-21.257418-8.502967-38.263352-25.508901-63.772254-17.005935-55.269286 25.508901-119.04154 51.017803-178.562309 80.778188-38.263352 17.005934-42.514836 42.514836-29.760385 72.27522 12.754451 21.257418 42.514836 29.760385 76.526704 17.005935 29.760385-12.754451 55.269286-25.508901 80.778188-38.263352 42.514836-21.257418 80.778188-25.508901 123.293023 4.251483 29.760385 21.257418 25.508901 34.011868 4.251483 51.017803-46.766319 42.514836-93.532638 85.029671-131.79599 136.047474-29.760385 38.263352-25.508901 76.526704 8.502967 106.287089l127.544507 114.790056c12.754451 12.754451 25.508901 25.508901-4.251484 29.760384-42.514836 8.502967-80.778188 17.005934-123.293023 25.508902-29.760385 4.251484-55.269286 34.011868-51.017803 59.52077 4.251484 29.760385 42.514836 46.766319 72.275221 38.263352 80.778188-21.257418 161.556375-38.263352 242.334563-55.269287 42.514836-8.502967 59.52077-51.017803 38.263352-85.029671S622.538572 598.851644 597.029671 564.839776c-51.017803-76.526704-51.017803-76.526704 12.754451-140.298957 38.263352-38.263352 38.263352-38.263352 63.772253 12.75445 12.754451 21.257418 21.257418 46.766319 55.269286 42.514836 59.52077-4.251484 119.04154-21.257418 178.56231-34.011869 21.257418 0 29.760385-34.011868 21.257417-55.269286m-306.106816 374.130553c-29.760385 21.257418-68.023737 8.502967-102.035605 29.760385-8.502967 4.251484-17.005934 12.754451-25.508901 21.257418-29.760385 42.514836-55.269286 89.281155-85.029671 131.79599-17.005934 25.508901-8.502967 46.766319 12.75445 63.772253s51.017803 17.005934 68.023737-8.502967c51.017803-68.023737 102.035605-140.298957 153.053408-212.574178 12.754451-17.005934 0-21.257418-21.257418-25.508901" p-id="5513" fill="#65e460"></path><path d="M324.934724 416.037851h-212.574178c-12.754451 0-21.257418-8.502967-21.257418-21.257417s8.502967-21.257418 21.257418-21.257418h255.089013c0 21.257418-17.005934 42.514836-42.514835 42.514835zM367.449559 598.851644h-255.089013c-12.754451 0-21.257418-8.502967-21.257418-21.257417s8.502967-21.257418 21.257418-21.257418h212.574178c25.508901 0 42.514836 17.005934 42.514835 42.514835zM282.419888 505.319006h-170.059342c-12.754451 0-21.257418-8.502967-21.257418-21.257418s8.502967-21.257418 21.257418-21.257417h170.059342c12.754451 0 21.257418 8.502967 21.257418 21.257417s-8.502967 21.257418-21.257418 21.257418z" p-id="5514" fill="#65e460"></path></svg>