<?xml version="1.0" standalone="no"?><!DOCTYPE svg PUBLIC "-//W3C//DTD SVG 1.1//EN" "http://www.w3.org/Graphics/SVG/1.1/DTD/svg11.dtd"><svg t="1611886461617" class="icon" viewBox="0 0 1024 1024" version="1.1" xmlns="http://www.w3.org/2000/svg" p-id="3655" xmlns:xlink="http://www.w3.org/1999/xlink" width="200" height="200"><defs><style type="text/css"></style></defs><path d="M284.330667 351.232c25.429333 0 46.762667-21.162667 46.762666-46.762667V96.597333c0-25.429333-21.162667-46.762667-46.762666-46.762666-25.429333 0-46.762667 21.162667-46.762667 46.762666v208.042667c4.437333 25.429333 21.333333 46.592 46.762667 46.592z m390.656 0c25.429333 0 46.762667-21.162667 46.762666-46.762667V96.597333c0-25.429333-21.162667-46.762667-46.762666-46.762666-25.429333 0-46.762667 21.162667-46.762667 46.762666v208.042667c0 25.429333 21.333333 46.592 46.762667 46.592zM1010.346667 449.024c-8.533333-8.533333-21.162667-12.8-33.962667-12.8-12.8 0-25.429333 4.266667-33.962667 12.8L751.274667 640l-63.658667-63.658667c-8.533333-8.533333-21.162667-12.8-33.962667-12.8-12.8 0-25.429333 4.266667-33.962666 12.8-16.896 16.896-16.896 46.762667 0 63.658667l97.621333 97.621333c8.533333 8.533333 21.162667 12.8 33.962667 12.8 12.8 0 25.429333-4.266667 33.962666-12.8L1010.346667 512.682667c8.533333-8.533333 12.8-21.162667 12.8-33.962667-0.170667-12.8-4.437333-21.333333-12.8-29.696z m0 0M190.976 499.882667c0 35.157333 28.501333 63.658667 63.658667 63.658666 35.157333 0 63.658667-28.501333 63.658666-63.658666 0-35.157333-28.501333-63.658667-63.658666-63.658667-35.157333 0-63.658667 28.501333-63.658667 63.658667z m0 0M403.285333 499.882667c0 35.157333 28.501333 63.658667 63.658667 63.658666 35.157333 0 63.658667-28.501333 63.658667-63.658666 0-35.157333-28.501333-63.658667-63.658667-63.658667-35.157333 0-63.658667 28.501333-63.658667 63.658667z m0 0M254.634667 640c-33.962667 0-63.658667 29.696-63.658667 63.658667s29.696 63.658667 63.658667 63.658666 63.658667-29.696 63.658666-63.658666-29.696-63.658667-63.658666-63.658667z m212.309333 0c-33.962667 0-63.658667 29.696-63.658667 63.658667s29.696 63.658667 63.658667 63.658666 63.658667-29.696 63.658667-63.658666-29.696-63.658667-63.658667-63.658667z m403.285333-343.893333v89.088c0 25.429333 21.162667 46.762667 46.762667 46.762666 25.429333 0 46.762667-21.162667 46.762667-46.762666v-89.088c0-76.458667-63.658667-135.850667-140.117334-135.850667h-84.821333v89.088h84.821333c21.162667 0.170667 46.592 21.333333 46.592 46.762667zM343.893333 160.256h267.434667v89.088H343.893333V160.256z m0 0" p-id="3656" fill="#65e460"></path><path d="M912.725333 661.162667c-25.429333 0-46.762667 21.162667-46.762666 46.762666v127.317334c0 25.429333-21.162667 50.858667-50.858667 50.858666H140.117333c-25.429333 0-50.858667-21.162667-50.858666-50.858666V300.373333c0-25.429333 21.162667-50.858667 50.858666-50.858666h84.821334V160.256H140.117333C63.658667 160.256 0 223.914667 0 300.373333v534.869334c0 76.458667 63.658667 140.117333 140.117333 140.117333h679.253334c76.458667 0 140.117333-63.658667 140.117333-140.117333v-127.317334c-0.170667-25.429333-21.333333-46.762667-46.762667-46.762666z m0 0" p-id="3657" fill="#65e460"></path></svg>