<?xml version="1.0" standalone="no"?><!DOCTYPE svg PUBLIC "-//W3C//DTD SVG 1.1//EN" "http://www.w3.org/Graphics/SVG/1.1/DTD/svg11.dtd"><svg t="1611886537151" class="icon" viewBox="0 0 1024 1024" version="1.1" xmlns="http://www.w3.org/2000/svg" p-id="4460" xmlns:xlink="http://www.w3.org/1999/xlink" width="200" height="200"><defs><style type="text/css"></style></defs><path d="M791.008395 482.164938H496.57679a25.283951 25.283951 0 0 1 0-50.567901h294.431605a25.283951 25.283951 0 0 1 0 50.567901zM839.55358 626.789136H496.57679a25.283951 25.283951 0 0 1 0-50.567901h342.97679a25.283951 25.283951 0 0 1 0 50.567901zM316.049383 680.138272h-60.934321a112.89284 112.89284 0 0 1-112.76642-112.76642v-77.11605a112.89284 112.89284 0 0 1 112.76642-112.64H316.049383a112.89284 112.89284 0 0 1 112.766419 112.64v77.11605A112.89284 112.89284 0 0 1 316.049383 680.138272z m-60.934321-251.954568a62.198519 62.198519 0 0 0-62.198519 62.072098v77.11605a62.198519 62.198519 0 0 0 62.198519 62.198518H316.049383a62.198519 62.198519 0 0 0 62.198518-62.198518v-77.11605A62.198519 62.198519 0 0 0 316.049383 428.183704zM794.548148 887.972346h-568.888889a82.804938 82.804938 0 0 1 0-165.483457h568.888889a82.804938 82.804938 0 0 1 0 165.483457z m-568.888889-115.674074a32.869136 32.869136 0 1 0 0 65.738271h568.888889a32.869136 32.869136 0 1 0 0-65.738271z" p-id="4461" fill="#65e460"></path><path d="M880.76642 970.524444H119.087407a101.135802 101.135802 0 0 1-101.135802-101.135802V367.755062a101.135802 101.135802 0 0 1 101.135802-101.135803h284.065186l54.486913-104.801975a58.153086 58.153086 0 0 1 51.45284-31.604938 59.038025 59.038025 0 0 1 52.084938 30.46716L619.45679 266.619259h261.30963a101.135802 101.135802 0 0 1 101.135802 101.135803v501.63358a101.135802 101.135802 0 0 1-101.135802 101.135802zM119.087407 317.18716a50.567901 50.567901 0 0 0-50.567901 50.567902v501.63358a50.567901 50.567901 0 0 0 50.567901 50.567901h761.679013a50.567901 50.567901 0 0 0 50.567901-50.567901V367.755062a50.567901 50.567901 0 0 0-50.567901-50.567902H588.86321l-72.059259-132.235061a8.343704 8.343704 0 0 0-7.205926-4.171852 7.458765 7.458765 0 0 0-7.079506 4.298272l-68.645926 132.108641z" p-id="4462" fill="#65e460"></path></svg>